<svg width="62" height="44" viewBox="0 0 62 44" fill="none" xmlns="http://www.w3.org/2000/svg">
<mask id="mask0_2874_181" style="mask-type:alpha" maskUnits="userSpaceOnUse" x="3" y="3" width="55" height="35">
<path d="M3.6618 20.683C3.6618 11.2851 11.2803 3.66653 20.6783 3.66653H40.208C49.6059 3.66653 57.2245 11.2851 57.2245 20.683V20.683C57.2245 30.0809 49.6059 37.6994 40.208 37.6994H20.6783C11.2803 37.6994 3.6618 30.0809 3.6618 20.683V20.683Z" fill="white"/>
</mask>
<g mask="url(#mask0_2874_181)">
<path d="M39.7614 8.85995C39.7685 8.86216 39.9328 8.96783 39.1832 14.0406C39.0659 14.8348 38.9605 15.5043 38.8698 16.0689C37.8193 13.407 35.6124 11.3295 32.8658 10.4576C33.4311 10.2509 34.0819 10.033 34.8229 9.81406C38.312 8.78309 39.7614 8.85995 39.7614 8.85995Z" fill="url(#paint0_linear_2874_181)"/>
<path d="M20.0501 8.85846C20.0759 8.85719 21.5306 8.79075 24.9886 9.81256C25.6151 9.99771 26.1767 10.183 26.6771 10.3604C24.0132 11.3359 21.9045 13.4622 20.9515 16.1368C20.8581 15.5579 20.7504 14.866 20.6282 14.0391C19.8626 8.85809 20.0501 8.85846 20.0501 8.85846Z" fill="url(#paint1_linear_2874_181)"/>
<path d="M39.5374 19.3492C39.5374 24.6343 35.253 28.9187 29.9679 28.9187C24.6828 28.9187 20.3984 24.6343 20.3984 19.3492C20.3984 14.0641 24.6828 9.77969 29.9679 9.77969C35.253 9.77969 39.5374 14.0641 39.5374 19.3492Z" fill="url(#paint2_linear_2874_181)"/>
<path d="M35.8881 37.6954H24.0473L26.5219 30.171C27.5745 30.498 28.6924 30.6758 29.851 30.6758C31.0868 30.6758 32.2758 30.4728 33.3891 30.1026L35.8881 37.6954Z" fill="url(#paint3_linear_2874_181)"/>
</g>
<path d="M8 0C3.58172 0 1.28858e-07 3.58172 0 8V36C1.28858e-07 40.4183 3.58172 44 8 44H53.2168C57.6351 44 61.2168 40.4183 61.2168 36V8C61.2168 3.58172 57.6351 0 53.2168 0H8ZM49.21 3.66602C53.6282 3.66602 57.21 7.24774 57.21 11.666V29.707C57.21 34.1253 53.6282 37.707 49.21 37.707H11.6602C7.24203 37.7069 3.66016 34.1252 3.66016 29.707V11.666C3.66016 7.24785 7.24203 3.6662 11.6602 3.66602H49.21Z" fill="white" fill-opacity="0.85"/>
<defs>
<linearGradient id="paint0_linear_2874_181" x1="36.3242" y1="8.85799" x2="36.3242" y2="16.0692" gradientUnits="userSpaceOnUse">
<stop offset="0.427083" stop-color="white"/>
<stop offset="1" stop-color="#EBEBEB"/>
</linearGradient>
<linearGradient id="paint1_linear_2874_181" x1="23.3532" y1="8.85649" x2="23.3532" y2="16.1361" gradientUnits="userSpaceOnUse">
<stop offset="0.427083" stop-color="white"/>
<stop offset="1" stop-color="#EBEBEB"/>
</linearGradient>
<linearGradient id="paint2_linear_2874_181" x1="29.9679" y1="9.77966" x2="29.9679" y2="28.9187" gradientUnits="userSpaceOnUse">
<stop offset="0.427083" stop-color="white"/>
<stop offset="1" stop-color="#EBEBEB"/>
</linearGradient>
<linearGradient id="paint3_linear_2874_181" x1="29.9677" y1="30.1026" x2="29.9677" y2="37.6954" gradientUnits="userSpaceOnUse">
<stop offset="0.427083" stop-color="white"/>
<stop offset="1" stop-color="#EBEBEB"/>
</linearGradient>
</defs>
</svg>
