<svg width="18" height="14" viewBox="0 0 18 14" fill="none" xmlns="http://www.w3.org/2000/svg">
<mask id="mask0_2874_146" style="mask-type:alpha" maskUnits="userSpaceOnUse" x="1" y="1" width="16" height="11">
<path d="M1.07678 6.08149C1.07678 3.31817 3.31689 1.07806 6.08021 1.07806H11.8226C14.5859 1.07806 16.8261 3.31817 16.8261 6.08149V6.08149C16.8261 8.84481 14.586 11.0849 11.8226 11.0849H6.08021C3.3169 11.0849 1.07678 8.84481 1.07678 6.08149V6.08149Z" fill="white"/>
</mask>
<g mask="url(#mask0_2874_146)">
<path d="M11.6913 2.60553C11.6913 2.60553 11.7465 2.60553 11.5214 4.12897C11.4869 4.3624 11.4533 4.55871 11.4266 4.72467C11.138 3.99416 10.5548 3.41419 9.82117 3.1319C9.92616 3.02407 10.0649 2.93732 10.2391 2.8858C11.2567 2.58511 11.6844 2.60519 11.6913 2.60553Z" fill="url(#paint0_linear_2874_146)"/>
<path d="M5.89539 2.60504C5.89539 2.60504 6.32164 2.58218 7.34753 2.88531C7.5003 2.93046 7.62587 3.00278 7.72546 3.09235C6.9974 3.39726 6.42745 4.00089 6.16199 4.7486C6.1344 4.57768 6.10149 4.37331 6.06531 4.12848C5.8512 2.67957 5.89102 2.60851 5.89539 2.60504Z" fill="url(#paint1_linear_2874_146)"/>
<path d="M11.6256 5.68935C11.6256 7.24335 10.3658 8.50311 8.81181 8.50311C7.25781 8.50311 5.99805 7.24335 5.99805 5.68935C5.99805 4.13535 7.25781 2.87558 8.81181 2.87558C10.3658 2.87558 11.6256 4.13535 11.6256 5.68935Z" fill="url(#paint2_linear_2874_146)"/>
<path d="M10.5526 11.0836H7.07019L7.79773 8.87173C8.10736 8.96801 8.43638 9.02015 8.77722 9.02017C9.14045 9.02017 9.49002 8.95999 9.81726 8.85123L10.5526 11.0836Z" fill="url(#paint3_linear_2874_146)"/>
</g>
<path d="M2 0C0.895487 6.59768e-05 0 0.895471 0 2V12C4.83152e-08 13.1045 0.895487 13.9999 2 14H16C17.1046 14 18 13.1046 18 12V2C18 0.895431 17.1046 0 16 0H2ZM14.8223 1.07812C15.9267 1.07833 16.8223 1.97368 16.8223 3.07812V9.08691C16.8223 10.1914 15.9267 11.0867 14.8223 11.0869H3.07617C1.97172 11.0868 1.07617 10.1914 1.07617 9.08691V3.07812C1.07617 1.97364 1.97171 1.07826 3.07617 1.07812H14.8223Z" fill="white" fill-opacity="0.85"/>
<defs>
<linearGradient id="paint0_linear_2874_146" x1="10.7592" y1="2.60455" x2="10.7592" y2="4.72505" gradientUnits="userSpaceOnUse">
<stop offset="0.427083" stop-color="white"/>
<stop offset="1" stop-color="#EBEBEB"/>
</linearGradient>
<linearGradient id="paint1_linear_2874_146" x1="6.80754" y1="2.60406" x2="6.80754" y2="4.74703" gradientUnits="userSpaceOnUse">
<stop offset="0.427083" stop-color="white"/>
<stop offset="1" stop-color="#EBEBEB"/>
</linearGradient>
<linearGradient id="paint2_linear_2874_146" x1="8.81182" y1="2.87557" x2="8.81182" y2="8.5031" gradientUnits="userSpaceOnUse">
<stop offset="0.427083" stop-color="white"/>
<stop offset="1" stop-color="#EBEBEB"/>
</linearGradient>
<linearGradient id="paint3_linear_2874_146" x1="8.81141" y1="8.85122" x2="8.81141" y2="11.0836" gradientUnits="userSpaceOnUse">
<stop offset="0.427083" stop-color="white"/>
<stop offset="1" stop-color="#EBEBEB"/>
</linearGradient>
</defs>
</svg>
